<svg width="28" height="26" viewBox="0 0 28 26" fill="none" xmlns="http://www.w3.org/2000/svg">
<path d="M4 2V24H16V2H4ZM3 0H17C17.2652 0 17.5196 0.105357 17.7071 0.292893C17.8946 0.48043 18 0.734784 18 1V25C18 25.2652 17.8946 25.5196 17.7071 25.7071C17.5196 25.8946 17.2652 26 17 26H3C2.73478 26 2.48043 25.8946 2.29289 25.7071C2.10536 25.5196 2 25.2652 2 25V1C2 0.734784 2.10536 0.48043 2.29289 0.292893C2.48043 0.105357 2.73478 0 3 0Z" fill="black"/>
<path d="M6 6H14V8H6V6ZM6 12H14V14H6V12ZM6 18H14V20H6V18ZM18 14H22V16H18V14ZM18 18H22V20H18V18ZM0 24H28V26H0V24Z" fill="black"/>
<path d="M18 10V24H24V10H18ZM17 8H25C25.2652 8 25.5196 8.10536 25.7071 8.29289C25.8946 8.48043 26 8.73478 26 9V25C26 25.2652 25.8946 25.5196 25.7071 25.7071C25.5196 25.8946 25.2652 26 25 26H17C16.7348 26 16.4804 25.8946 16.2929 25.7071C16.1054 25.5196 16 25.2652 16 25V9C16 8.73478 16.1054 8.48043 16.2929 8.29289C16.4804 8.10536 16.7348 8 17 8Z" fill="black"/>
</svg>
