<svg width="248" height="68" viewBox="0 0 248 68" fill="none" xmlns="http://www.w3.org/2000/svg">
<rect width="248" height="68" rx="29" fill="black"/>
<path d="M62.1426 27.5137C61.1855 27.5137 60.3288 27.6868 59.5723 28.0332C58.8249 28.3796 58.1914 28.8809 57.6719 29.5371C57.1523 30.1842 56.7559 30.9727 56.4824 31.9023C56.209 32.8229 56.0723 33.862 56.0723 35.0195C56.0723 36.569 56.291 37.9043 56.7285 39.0254C57.166 40.1374 57.8314 40.9941 58.7246 41.5957C59.6178 42.1882 60.748 42.4844 62.1152 42.4844C62.9629 42.4844 63.7878 42.4023 64.5898 42.2383C65.3919 42.0742 66.2214 41.8509 67.0781 41.5684V44.3574C66.2669 44.6764 65.4466 44.9089 64.6172 45.0547C63.7878 45.2005 62.8307 45.2734 61.7461 45.2734C59.7044 45.2734 58.0091 44.8496 56.6602 44.002C55.3203 43.1543 54.3177 41.9603 53.6523 40.4199C52.9961 38.8796 52.668 37.0749 52.668 35.0059C52.668 33.4928 52.8776 32.1074 53.2969 30.8496C53.7161 29.5918 54.3268 28.5072 55.1289 27.5957C55.931 26.6751 56.9199 25.9688 58.0957 25.4766C59.2806 24.9753 60.6341 24.7246 62.1562 24.7246C63.1589 24.7246 64.1432 24.8385 65.1094 25.0664C66.0846 25.2852 66.987 25.5996 67.8164 26.0098L66.668 28.7168C65.9753 28.3887 65.2507 28.1061 64.4941 27.8691C63.7376 27.6322 62.9538 27.5137 62.1426 27.5137ZM84.4414 37.3984C84.4414 38.6562 84.2773 39.7728 83.9492 40.748C83.6211 41.7233 83.1426 42.5482 82.5137 43.2227C81.8848 43.888 81.1283 44.3984 80.2441 44.7539C79.36 45.1003 78.362 45.2734 77.25 45.2734C76.2109 45.2734 75.2585 45.1003 74.3926 44.7539C73.5267 44.3984 72.7747 43.888 72.1367 43.2227C71.5078 42.5482 71.0202 41.7233 70.6738 40.748C70.3275 39.7728 70.1543 38.6562 70.1543 37.3984C70.1543 35.7305 70.4414 34.3177 71.0156 33.1602C71.599 31.9935 72.4284 31.1048 73.5039 30.4941C74.5794 29.8835 75.86 29.5781 77.3457 29.5781C78.7402 29.5781 79.9707 29.8835 81.0371 30.4941C82.1035 31.1048 82.9375 31.9935 83.5391 33.1602C84.1406 34.3268 84.4414 35.7396 84.4414 37.3984ZM73.4629 37.3984C73.4629 38.5013 73.5951 39.4447 73.8594 40.2285C74.1328 41.0124 74.5521 41.6139 75.1172 42.0332C75.6823 42.4434 76.4115 42.6484 77.3047 42.6484C78.1979 42.6484 78.9271 42.4434 79.4922 42.0332C80.0573 41.6139 80.472 41.0124 80.7363 40.2285C81.0007 39.4447 81.1328 38.5013 81.1328 37.3984C81.1328 36.2956 81.0007 35.3613 80.7363 34.5957C80.472 33.821 80.0573 33.2331 79.4922 32.832C78.9271 32.4219 78.1934 32.2168 77.291 32.2168C75.9603 32.2168 74.9896 32.6634 74.3789 33.5566C73.7682 34.4499 73.4629 35.7305 73.4629 37.3984ZM96.0215 29.5781C97.7259 29.5781 99.0521 30.0202 100 30.9043C100.957 31.7793 101.436 33.1875 101.436 35.1289V45H98.2227V35.7305C98.2227 34.5547 97.9811 33.6751 97.498 33.0918C97.015 32.4993 96.2676 32.2031 95.2559 32.2031C93.7884 32.2031 92.7676 32.6543 92.1934 33.5566C91.6283 34.459 91.3457 35.7669 91.3457 37.4805V45H88.1328V29.8652H90.6348L91.0859 31.916H91.2637C91.5918 31.3874 91.9974 30.9544 92.4805 30.6172C92.9727 30.2708 93.5195 30.0111 94.1211 29.8379C94.7318 29.6647 95.3652 29.5781 96.0215 29.5781ZM111.566 42.6758C111.986 42.6758 112.4 42.6393 112.811 42.5664C113.221 42.4844 113.594 42.3887 113.932 42.2793V44.7129C113.576 44.8678 113.116 45 112.551 45.1094C111.986 45.2188 111.398 45.2734 110.787 45.2734C109.93 45.2734 109.16 45.1322 108.477 44.8496C107.793 44.5579 107.251 44.0612 106.85 43.3594C106.449 42.6576 106.248 41.6868 106.248 40.4473V32.3125H104.184V30.877L106.398 29.7422L107.451 26.502H109.475V29.8652H113.809V32.3125H109.475V40.4062C109.475 41.1719 109.666 41.7415 110.049 42.1152C110.432 42.4889 110.938 42.6758 111.566 42.6758ZM122.941 29.5781C124.855 29.5781 126.3 30.002 127.275 30.8496C128.26 31.6973 128.752 33.0189 128.752 34.8145V45H126.469L125.854 42.8535H125.744C125.316 43.4004 124.874 43.8516 124.418 44.207C123.962 44.5625 123.434 44.8268 122.832 45C122.24 45.1823 121.515 45.2734 120.658 45.2734C119.756 45.2734 118.949 45.1094 118.238 44.7812C117.527 44.444 116.967 43.9336 116.557 43.25C116.146 42.5664 115.941 41.7005 115.941 40.6523C115.941 39.0938 116.52 37.9225 117.678 37.1387C118.844 36.3548 120.604 35.9219 122.955 35.8398L125.58 35.7441V34.9512C125.58 33.903 125.334 33.1556 124.842 32.709C124.359 32.2624 123.675 32.0391 122.791 32.0391C122.035 32.0391 121.301 32.1484 120.59 32.3672C119.879 32.5859 119.186 32.8548 118.512 33.1738L117.473 30.9043C118.211 30.5124 119.049 30.1934 119.988 29.9473C120.936 29.7012 121.921 29.5781 122.941 29.5781ZM125.566 37.7676L123.611 37.8359C122.007 37.8906 120.882 38.1641 120.234 38.6562C119.587 39.1484 119.264 39.8229 119.264 40.6797C119.264 41.4271 119.487 41.974 119.934 42.3203C120.38 42.6576 120.968 42.8262 121.697 42.8262C122.809 42.8262 123.73 42.5117 124.459 41.8828C125.197 41.2448 125.566 40.3105 125.566 39.0801V37.7676ZM139.348 45.2734C137.917 45.2734 136.677 44.9954 135.629 44.4395C134.581 43.8835 133.774 43.0312 133.209 41.8828C132.644 40.7344 132.361 39.276 132.361 37.5078C132.361 35.6667 132.671 34.1628 133.291 32.9961C133.911 31.8294 134.768 30.9681 135.861 30.4121C136.964 29.8561 138.227 29.5781 139.648 29.5781C140.551 29.5781 141.367 29.6693 142.096 29.8516C142.834 30.0247 143.458 30.2389 143.969 30.4941L143.012 33.0645C142.456 32.8366 141.886 32.6452 141.303 32.4902C140.719 32.3353 140.159 32.2578 139.621 32.2578C138.737 32.2578 137.999 32.4538 137.406 32.8457C136.823 33.2376 136.385 33.821 136.094 34.5957C135.811 35.3704 135.67 36.332 135.67 37.4805C135.67 38.5924 135.816 39.5312 136.107 40.2969C136.399 41.0534 136.832 41.6276 137.406 42.0195C137.98 42.4023 138.687 42.5938 139.525 42.5938C140.355 42.5938 141.098 42.4935 141.754 42.293C142.41 42.0924 143.03 41.8327 143.613 41.5137V44.3027C143.039 44.6309 142.424 44.8724 141.768 45.0273C141.111 45.1914 140.305 45.2734 139.348 45.2734ZM152.801 42.6758C153.22 42.6758 153.635 42.6393 154.045 42.5664C154.455 42.4844 154.829 42.3887 155.166 42.2793V44.7129C154.811 44.8678 154.35 45 153.785 45.1094C153.22 45.2188 152.632 45.2734 152.021 45.2734C151.165 45.2734 150.395 45.1322 149.711 44.8496C149.027 44.5579 148.485 44.0612 148.084 43.3594C147.683 42.6576 147.482 41.6868 147.482 40.4473V32.3125H145.418V30.877L147.633 29.7422L148.686 26.502H150.709V29.8652H155.043V32.3125H150.709V40.4062C150.709 41.1719 150.9 41.7415 151.283 42.1152C151.666 42.4889 152.172 42.6758 152.801 42.6758ZM181.539 25.0117V37.9453C181.539 39.3398 181.243 40.5885 180.65 41.6914C180.067 42.7943 179.183 43.6693 177.998 44.3164C176.813 44.9544 175.323 45.2734 173.527 45.2734C170.966 45.2734 169.016 44.6035 167.676 43.2637C166.345 41.9147 165.68 40.1237 165.68 37.8906V25.0117H168.961V37.6035C168.961 39.2715 169.353 40.502 170.137 41.2949C170.921 42.0879 172.092 42.4844 173.65 42.4844C174.726 42.4844 175.601 42.2975 176.275 41.9238C176.959 41.541 177.46 40.985 177.779 40.2559C178.107 39.5176 178.271 38.6289 178.271 37.5898V25.0117H181.539ZM196.496 40.6797C196.496 41.6732 196.255 42.5117 195.771 43.1953C195.288 43.8789 194.582 44.3984 193.652 44.7539C192.732 45.1003 191.602 45.2734 190.262 45.2734C189.204 45.2734 188.293 45.196 187.527 45.041C186.771 44.8952 186.055 44.6673 185.381 44.3574V41.582C186.101 41.9193 186.908 42.2109 187.801 42.457C188.703 42.7031 189.555 42.8262 190.357 42.8262C191.415 42.8262 192.176 42.6621 192.641 42.334C193.105 41.9967 193.338 41.5501 193.338 40.9941C193.338 40.666 193.242 40.3743 193.051 40.1191C192.868 39.8548 192.522 39.5859 192.012 39.3125C191.51 39.0299 190.772 38.6927 189.797 38.3008C188.84 37.918 188.033 37.5352 187.377 37.1523C186.721 36.7695 186.224 36.3092 185.887 35.7715C185.549 35.2246 185.381 34.5273 185.381 33.6797C185.381 32.3398 185.91 31.3236 186.967 30.6309C188.033 29.929 189.441 29.5781 191.191 29.5781C192.121 29.5781 192.996 29.6738 193.816 29.8652C194.646 30.0475 195.457 30.3164 196.25 30.6719L195.238 33.0918C194.555 32.791 193.867 32.5449 193.174 32.3535C192.49 32.153 191.793 32.0527 191.082 32.0527C190.253 32.0527 189.619 32.1803 189.182 32.4355C188.753 32.6908 188.539 33.0553 188.539 33.5293C188.539 33.8848 188.644 34.1855 188.854 34.4316C189.063 34.6777 189.423 34.9238 189.934 35.1699C190.453 35.416 191.173 35.7214 192.094 36.0859C192.996 36.4323 193.775 36.7969 194.432 37.1797C195.097 37.5534 195.607 38.0137 195.963 38.5605C196.318 39.1074 196.496 39.8138 196.496 40.6797Z" fill="white"/>
</svg>
