<svg width="30" height="29" viewBox="0 0 30 29" fill="none" xmlns="http://www.w3.org/2000/svg">
<path d="M14.5245 1.69959C14.6741 1.23894 15.3258 1.23893 15.4755 1.69959L17.9779 9.40122C18.3126 10.4313 19.2725 11.1287 20.3556 11.1287H28.4536C28.9379 11.1287 29.1393 11.7485 28.7474 12.0332L22.196 16.7931C21.3198 17.4297 20.9532 18.5581 21.2879 19.5881L23.7903 27.2898C23.94 27.7504 23.4127 28.1335 23.0209 27.8488L16.4695 23.0889C15.5932 22.4523 14.4068 22.4523 13.5305 23.0889L6.97914 27.8488C6.58729 28.1335 6.06004 27.7504 6.20972 27.2898L8.71213 19.5881C9.04682 18.5581 8.68017 17.4297 7.80395 16.7931L7.21617 17.6021L7.80395 16.7931L1.25255 12.0332C0.860705 11.7485 1.06208 11.1287 1.54645 11.1287H9.64442C10.7275 11.1287 11.6874 10.4313 12.0221 9.40122L14.5245 1.69959Z" stroke="#8E8E8E" stroke-width="2"/>
</svg>
