<svg width="38" height="38" viewBox="0 0 38 38" fill="none" xmlns="http://www.w3.org/2000/svg">
<path d="M18.5245 4.69959C18.6741 4.23894 19.3258 4.23893 19.4755 4.69959L21.9779 12.4012C22.3126 13.4313 23.2725 14.1287 24.3556 14.1287H32.4536C32.9379 14.1287 33.1393 14.7485 32.7474 15.0332L26.196 19.7931C25.3198 20.4297 24.9532 21.5581 25.2879 22.5881L27.7903 30.2898C27.94 30.7504 27.4127 31.1335 27.0209 30.8488L20.4695 26.0889C19.5932 25.4523 18.4068 25.4523 17.5305 26.0889L10.9791 30.8488C10.5873 31.1335 10.06 30.7504 10.2097 30.2898L12.7121 22.5881C13.0468 21.5581 12.6802 20.4297 11.804 19.7931L11.2162 20.6021L11.804 19.7931L5.25255 15.0332C4.8607 14.7485 5.06208 14.1287 5.54645 14.1287H13.6444C14.7275 14.1287 15.6874 13.4313 16.0221 12.4012L18.5245 4.69959Z" stroke="#8E8E8E" stroke-width="2"/>
</svg>
