<svg width="38" height="38" viewBox="0 0 38 38" fill="none" xmlns="http://www.w3.org/2000/svg">
<path d="M17.5734 4.39057C18.0224 3.00861 19.9776 3.00861 20.4266 4.39058L22.929 12.0922C23.1298 12.7102 23.7057 13.1287 24.3556 13.1287H32.4536C33.9066 13.1287 34.5108 14.9881 33.3352 15.8422L26.7838 20.6021C26.2581 20.984 26.0381 21.6611 26.2389 22.2791L28.7413 29.9808C29.1904 31.3627 27.6086 32.5119 26.4331 31.6578L19.8817 26.8979C19.3559 26.516 18.6441 26.516 18.1183 26.8979L11.5669 31.6578C10.3914 32.5119 8.80964 31.3627 9.25866 29.9807L11.7611 22.2791C11.9619 21.6611 11.7419 20.984 11.2162 20.6021L4.66477 15.8422C3.4892 14.9881 4.09337 13.1287 5.54645 13.1287H13.6444C14.2943 13.1287 14.8702 12.7102 15.071 12.0922L17.5734 4.39057Z" fill="#FFC38B"/>
</svg>
