<svg width="1512" height="613" viewBox="0 0 1512 613" fill="none" xmlns="http://www.w3.org/2000/svg">
<g clip-path="url(#clip0_666_773)">
<path d="M319.072 290.925C280.781 214.342 269.723 266.931 268.981 302.799L212.583 446.393C250.182 471.624 378.113 573.888 456.73 529.507C525.744 490.547 505.708 427.099 476.395 427.099C531.904 388.213 486.414 386.902 456.73 391.107C467.49 384.058 490.124 343.614 470.459 327.659C454.726 314.895 421.604 334.461 407.01 345.84C415.297 317.764 426.082 258.199 402.928 244.545C379.775 230.89 354.94 267.797 345.417 287.957C332.949 253.227 322.659 275.465 319.072 290.925Z" fill="#65C6AF"/>
<path d="M527.701 543.853C564.805 563.226 539.006 568.179 521.468 568.234L450.798 594.57C438.788 575.976 389.9 512.568 412.267 474.522C431.901 441.123 462.742 451.461 462.491 465.788C481.973 438.99 482.224 461.236 479.914 475.709C483.452 470.51 503.415 459.794 511.044 469.543C517.148 477.342 507.301 493.363 501.614 500.399C515.408 496.59 544.614 491.829 551.09 503.263C557.565 514.697 539.313 526.52 529.378 531.002C546.246 537.393 535.288 542.232 527.701 543.853Z" fill="#FFC38B"/>
<path d="M-61.9905 250.121C-110.375 248.34 -96.745 294.894 -83.8821 318.394C-30.5754 315.425 76.8545 307.04 80.1197 297.244C84.2012 285 85.6853 154.763 80.1197 146.971C74.554 139.179 51.9203 120.998 18.8973 135.469C-7.52111 147.045 -0.0260086 182.344 7.02384 198.546C0.963448 187.415 -20.1366 168.195 -56.0538 180.365C-91.9709 192.535 -74.977 231.94 -61.9905 250.121Z" fill="#A6D9CD"/>
<path d="M-119.855 291.193C-145.944 273.048 -154.966 303.657 -156.216 321.229C-125.719 338.489 -63.404 371.944 -58.1183 367.678C-51.5113 362.346 -4.39308 290.766 -4.69704 284.478C-5.00099 278.19 -11.0384 260.098 -34.4214 256.399C-53.1278 253.44 -61.5367 275.641 -63.4029 287.112C-62.793 278.8 -67.614 260.676 -91.7776 254.677C-115.941 248.678 -120.564 276.521 -119.855 291.193Z" fill="#F6AD69"/>
<path d="M-129.15 633.411H682.696C505.331 453.1 70.5749 335.369 -129.15 298.07V633.411Z" fill="#15A280"/>
<path d="M-128.779 633.411H553.202C375.836 453.1 70.9458 379.551 -128.779 342.252V633.411Z" fill="#65C6AF"/>
<path d="M-128.036 633.412H463.038C285.673 453.101 71.688 435.098 -128.036 397.799V633.412Z" fill="#28BA97"/>
<path d="M-128.779 633.412H421.852C257.736 485.187 56.026 470.388 -128.779 439.727V633.412Z" fill="#FFF0E1"/>
<path d="M-128.779 633.411H307.57C176.634 504.496 18.6639 491.624 -128.779 464.957V633.411Z" fill="#65C6AF"/>
<path d="M204.049 114.219V277.949L147.279 299.47L138.374 9.3125L203.706 113.032C203.93 113.388 204.049 113.799 204.049 114.219Z" fill="#E98222"/>
<path d="M166.573 108.752L204.049 113.576L138.374 9.3125L128.727 72.0191L166.573 108.752Z" fill="#F6AD69"/>
<path d="M71.9568 109.866V259.768L109.432 287.225L166.573 276.699V108.556C166.573 108.349 166.545 108.144 166.488 107.946L138.374 9.3125L71.9568 109.866Z" fill="#F6AD69"/>
<path d="M87.1697 138.807C87.1697 134.094 90.9905 130.273 95.7037 130.273C100.417 130.273 104.238 134.094 104.238 138.807V191.125H87.1697V138.807Z" fill="white"/>
<path d="M110.174 138.807C110.174 134.094 113.995 130.273 118.708 130.273C123.422 130.273 127.242 134.094 127.242 138.807V191.125H110.174V138.807Z" fill="white"/>
<path d="M133.179 138.807C133.179 134.094 137 130.273 141.713 130.273C146.426 130.273 150.247 134.094 150.247 138.807V191.125H133.179V138.807Z" fill="white"/>
<ellipse cx="118.708" cy="230.085" rx="18.9233" ry="21.1496" fill="white"/>
<path d="M166.573 108.752L71.9568 109.866L138.374 9.3125L166.573 108.752Z" fill="#FFC998"/>
<path d="M246.719 225.261H266.013V266.076H246.719V225.261Z" fill="#E98222"/>
<path d="M283.081 219.324H302.375V260.139H283.081V219.324Z" fill="#E98222"/>
<path d="M40.418 216.355L59.7123 221.921V257.17H40.418V216.355Z" fill="#FFC38B"/>
<path d="M346.901 444.549L250.8 460.132L228.167 333.606L307.57 249.75L346.901 336.574V444.549Z" fill="#E98222"/>
<path d="M307.57 249.75L103.867 267.189L118.708 416.72L250.8 460.132V351.045L307.57 249.75Z" fill="#FFC38B"/>
<path d="M103.867 266.818L-19.6914 233.795L19.2683 428.593L120.192 417.091V328.782L103.867 266.818Z" fill="#E98222"/>
<path d="M-72.0087 420.43V309.488L-19.3203 233.795L19.2683 313.941V428.593L-72.0087 420.43Z" fill="#FFC38B"/>
<path fill-rule="evenodd" clip-rule="evenodd" d="M35.9653 354.764C35.9653 348.409 42.2108 343.936 48.2275 345.982C51.9883 347.26 54.5176 350.792 54.5176 354.764V379.278L35.9653 380.457V354.764ZM106.745 375.96L107.577 375.861V358.467C107.452 354.489 103.865 351.919 99.9033 351.542C95.2636 351.1 91.251 354.748 91.251 359.409V376.944L106.745 375.96ZM80.8618 377.604V356.567C80.8618 352.349 77.781 348.764 73.6116 348.13C68.4463 347.344 63.7937 351.342 63.7937 356.567V378.689L80.8618 377.604Z" fill="white"/>
<path d="M287.534 390.005L322.412 385.553V419.689L287.534 424.883V390.005Z" fill="white"/>
<path fill-rule="evenodd" clip-rule="evenodd" d="M134.663 377.911V355.307L150.989 357.942V381.406L134.663 377.911ZM134.663 383.224V402.811L150.989 408.13V386.719L134.663 383.224ZM155.442 387.672V409.581L171.768 414.9V391.167L155.442 387.672ZM176.22 392.12V416.35L192.546 421.67V395.615L176.22 392.12ZM192.546 390.302L176.22 386.807V362.014L192.546 364.649V390.302ZM196.999 396.568V423.12L213.325 428.439V400.063L196.999 396.568ZM213.325 394.75L196.999 391.255V365.368L213.325 368.003V394.75ZM217.777 401.016V429.89L234.103 435.209V404.511L217.777 401.016ZM234.103 399.198L217.777 395.703V368.722L234.103 371.357V399.198ZM171.768 385.854L155.442 382.359V358.66L171.768 361.295V385.854Z" fill="white"/>
<path d="M-44.919 598.181C-37.8502 611.61 -16.4477 615.248 -6.63005 615.388C26.6098 626.266 40.074 598.181 41.757 581.814C43.1034 568.72 34.7444 562.369 30.3966 560.83C27.7037 558.816 21.9814 561.67 19.4569 563.348C27.872 551.597 23.6645 538.588 16.9324 534.811C11.5467 531.789 8.5172 537.748 7.67569 541.106C7.67569 534.391 0.52282 501.237 -21.7773 502.076C-39.6174 502.748 -31.1742 525.578 -24.7226 536.909C-44.919 542.952 -39.3089 569.364 -33.9793 581.814C-40.5711 581.674 -51.9877 584.751 -44.919 598.181Z" fill="#FFC38B"/>
<path d="M-5.12761 568.082C-3.27328 582.133 -0.745534 615.33 -5.46913 635.704" stroke="#C66D1B" stroke-width="8.90508" stroke-linecap="square"/>
<path d="M-76.0683 27.8007C-97.1873 14.472 -114.057 27.8007 -119.852 36.1311C-132.214 32.5426 -137.88 44.4615 -139.168 50.8695H35.9654C23.088 27.8007 5.27418 34.4223 -2.02303 40.6167C-29.3232 -9.10951 -62.7616 11.3534 -76.0683 27.8007Z" fill="#C1E5DC"/>
<path d="M1386.03 145.488C1407.15 132.159 1424.02 145.488 1429.82 153.819C1442.18 150.23 1447.85 162.149 1449.13 168.557H1274C1286.88 145.488 1304.69 152.11 1311.99 158.304C1339.29 108.578 1372.73 129.041 1386.03 145.488Z" fill="#65C6AF"/>
<path d="M880.099 464.488C858.98 451.159 842.111 464.488 836.316 472.819C823.954 469.23 818.288 481.149 817 487.557H992.133C979.256 464.488 961.442 471.11 954.145 477.304C926.845 427.578 893.406 448.041 880.099 464.488Z" fill="#FFC38B"/>
<path d="M1068 460L1093 206L1444.5 245L1419 506.5L1068 460Z" fill="white"/>
<path d="M1050.11 486.51C1050.11 486.51 1271.24 519.802 1413.72 541.254C1414.32 541.345 1414.85 540.874 1414.85 540.263V532.5" stroke="black" stroke-width="5.19463" stroke-linecap="round"/>
<path d="M1067.55 462.02L1036.39 475.377L1414.5 531.499L1420.5 509.499" stroke="black" stroke-width="5.19463" stroke-linecap="round"/>
<path d="M1092.67 206.102L1443.52 241.9C1444.06 241.955 1444.46 242.439 1444.41 242.984L1420.51 507.733C1420.46 508.3 1419.95 508.71 1419.38 508.634L1068.88 461.777C1068.34 461.706 1067.96 461.228 1068.01 460.693L1091.58 207.005C1091.63 206.451 1092.12 206.046 1092.67 206.102Z" stroke="black" stroke-width="5.19463"/>
<path d="M1105.03 381.133L1151.41 296.906" stroke="black" stroke-width="5.19463" stroke-linecap="round"/>
<path d="M919.506 498.384C955.72 488.588 978.131 467.339 984.81 457.94L990.005 453.116C997.797 459.177 1017.83 465.88 1035.64 444.211C1053.45 422.542 1085.12 391.894 1098.72 379.278C1104.66 376.31 1114.97 374.38 1108.74 390.41C1102.51 406.439 1070.03 449.777 1054.57 469.442C1042.1 496.157 1064.96 589.908 1077.94 633.444L1047.52 629.362C1042.47 610.068 1031.81 579.519 1027.11 566.656C1025.92 581.794 1018.95 617.489 1015.61 633.444L990.005 627.136L994.457 587.434C998.91 514.413 989.881 501.105 984.81 503.578C981.471 505.433 941.027 522.873 919.506 513.596C902.29 506.176 912.333 500.362 919.506 498.384Z" fill="#65C6AF"/>
<path d="M982.955 446.808C991.489 455.961 1013.01 468.106 1030.82 443.469" stroke="black" stroke-width="5.19463" stroke-linecap="round"/>
<path d="M971.452 426.771C967.989 426.895 962.325 428.849 967.371 435.677C972.417 442.504 976.894 440.005 978.502 437.903" stroke="black" stroke-width="5.19463" stroke-linecap="round"/>
<path d="M973.308 426.401C972.318 416.383 976.573 395.085 1000.02 394.491C1005.22 394.36 1017.31 394.936 1027.11 404.138" stroke="black" stroke-width="5.19463" stroke-linecap="round"/>
<path d="M973.308 424.916C967.742 426.895 956.165 427.736 954.384 415.269C952.603 402.802 959.826 398.201 963.66 397.459C960.074 388.43 956.685 369.927 971.823 368.146C986.962 366.365 993.22 376.804 994.457 382.246C995.323 377.917 998.316 369.037 1003.36 368.146C1009.67 367.033 1016.72 369.631 1016.72 380.762C1023.15 379.896 1034.38 382.023 1027.85 397.459" stroke="black" stroke-width="5.19463" stroke-linecap="round"/>
<ellipse cx="995.57" cy="428.255" rx="3.71045" ry="4.08149" fill="black"/>
<ellipse cx="1020.8" cy="415.64" rx="3.71045" ry="4.08149" fill="black"/>
<path d="M1017.86 426.301C1020.41 423.796 1023.56 425.257 1024.82 426.301C1027.84 432.224 1024.34 437.121 1022.21 438.83C1019.7 440.443 1013.16 442.873 1007.13 439.684C999.587 435.698 1006.84 431.427 1007.71 431.427C1008.58 431.427 1014.67 429.434 1017.86 426.301Z" stroke="black" stroke-width="5.19463" stroke-linecap="round"/>
<path d="M1028.96 554.412C1027.48 572.841 1022.88 613.853 1016.35 630.476" stroke="black" stroke-width="5.19463" stroke-linecap="round"/>
<path d="M916.909 510.257C925.937 516.936 951.787 524.802 982.955 502.836" stroke="black" stroke-width="5.19463" stroke-linecap="round"/>
<ellipse cx="991.578" cy="436.528" rx="4.45254" ry="2.22627" transform="rotate(-17.2747 991.578 436.528)" fill="#FFA7A1"/>
<ellipse cx="1028.75" cy="419.228" rx="4.45254" ry="2.22627" transform="rotate(-26.0984 1028.75 419.228)" fill="#FFA7A1"/>
<path d="M1110.59 461.648L1169.22 468.698L1149.18 478.716L1089.07 469.069L1110.59 461.648Z" fill="#FFC38B"/>
<path d="M1089.07 469.07L1149.18 478.717V487.623L1089.07 478.717V469.07Z" fill="#E98222"/>
<path d="M1149.18 487.623V478.717L1169.22 468.699V477.233L1149.18 487.623Z" fill="#F9B372"/>
<path d="M1186.22 488.777L1250.92 499.45" stroke="#15A280" stroke-width="10.3893" stroke-linecap="round"/>
<path d="M1270.14 499.996L1334.85 510.626" stroke="#E98222" stroke-width="10.3893" stroke-linecap="round"/>
<path d="M1188.89 313.166C1194.19 313.166 1200.02 312.335 1204.88 310.2C1208.51 308.61 1213.07 305.318 1214.21 301.27C1215.04 298.333 1211.92 293.859 1209.26 292.768C1205.16 291.083 1200.13 294.144 1197.27 296.797C1190.83 302.762 1190.61 312.697 1192.57 320.701C1194.24 327.472 1199.27 331.688 1206.12 332.93C1213.26 334.224 1220.1 331.204 1223.79 324.872C1224.47 323.702 1225.44 322.136 1225.44 320.875" stroke="black" stroke-width="5.19463" stroke-linecap="round"/>
<path d="M1234.58 304.601C1241.87 301.603 1249.74 300.616 1257.42 299.176" stroke="black" stroke-width="5.19463" stroke-linecap="round"/>
<path d="M1238 313.453C1243.71 312.582 1249.41 311.79 1255.17 311.296C1256.56 311.176 1257.8 310.978 1259.13 310.598" stroke="black" stroke-width="5.19463" stroke-linecap="round"/>
<path d="M1350.78 310.025C1349.83 309.931 1349.06 308.964 1348.16 308.63C1346.9 308.155 1345.38 307.882 1344.02 308.09C1336.47 309.253 1337.6 320.647 1337.43 326.236C1337.26 331.442 1337.06 337.632 1340.01 342.193C1342.78 346.484 1348.2 345.579 1352.24 343.907C1356.38 342.195 1359.14 337.629 1361.04 333.771C1361.49 332.871 1361.48 331.119 1362.49 330.868" stroke="black" stroke-width="5.19463" stroke-linecap="round"/>
<path d="M1370.48 305.172C1370.48 302.39 1376.4 303.291 1377.9 304.601C1384.2 310.08 1375.73 318.024 1371.27 321.161C1370.05 322.022 1368.06 323.528 1367.5 321.383C1366.97 319.377 1366.8 317.357 1369.15 316.561C1373.98 314.921 1378.04 318.83 1380.19 322.588" stroke="black" stroke-width="5.19463" stroke-linecap="round"/>
<path d="M1268.74 293.195C1268.74 295.239 1268.79 300.708 1268.74 302.756C1268.55 310.479 1268.88 307.039 1268.72 314.763C1268.66 317.866 1268.58 320.917 1268.7 324.007C1268.78 326.071 1268.74 328.142 1268.74 330.208C1268.74 331.309 1268.74 332.41 1268.74 333.51C1268.74 333.912 1268.57 332.718 1268.58 332.317C1268.6 330.387 1269.21 328.388 1269.73 326.546C1270.45 324.009 1271.38 321.46 1272.48 319.062C1273.99 315.756 1275.65 312.391 1277.55 309.289C1278.94 307.017 1280.49 304.458 1282.59 302.756C1283.56 301.968 1284.69 301.198 1285.99 301.212C1287.12 301.224 1287.84 302.106 1288.51 302.917C1289.65 304.305 1290.53 306.044 1291.37 307.62C1293.88 312.301 1294.2 318.1 1294.75 323.271C1295.03 325.959 1295.41 328.693 1295.54 331.393C1295.57 331.861 1295.55 332.332 1295.55 332.801C1295.55 333 1295.72 331.987 1295.73 331.895C1296.46 327.021 1297.93 322.149 1299.36 317.446C1300.82 312.645 1303.32 307.185 1307.07 303.707C1308.82 302.08 1310.97 301.669 1313.18 302.558C1317.04 304.11 1319.39 307.311 1320.52 311.299C1322.08 316.802 1322.1 322.546 1322.85 328.171C1323.18 330.623 1323.35 333.094 1323.66 335.548" stroke="black" stroke-width="5.19463" stroke-linecap="round"/>
<path d="M1207 430.974C1238.56 402.873 1306.28 353.555 1324.67 381.09C1328.04 384.748 1331.47 397.751 1318.23 420.498C1305 443.245 1317.01 456.58 1324.67 460.405C1334.17 468.885 1364.93 474.073 1412 426.983" stroke="#E98222" stroke-width="4" stroke-linecap="round"/>
<circle cx="495" cy="204" r="50" fill="#FFB672"/>
</g>
<defs>
<clipPath id="clip0_666_773">
<rect width="1728" height="613" fill="white" transform="translate(-108)"/>
</clipPath>
</defs>
</svg>
