<svg width="34" height="42" viewBox="0 0 34 42" fill="none" xmlns="http://www.w3.org/2000/svg">
<path d="M17 22.875C20.1066 22.875 22.625 20.3566 22.625 17.25C22.625 14.1434 20.1066 11.625 17 11.625C13.8934 11.625 11.375 14.1434 11.375 17.25C11.375 20.3566 13.8934 22.875 17 22.875Z" stroke="black" stroke-width="3" stroke-linecap="round" stroke-linejoin="round"/>
<path d="M17 2.25C13.0218 2.25 9.20644 3.83035 6.3934 6.6434C3.58035 9.45644 2 13.2718 2 17.25C2 20.7975 2.75375 23.1187 4.8125 25.6875L17 39.75L29.1875 25.6875C31.2463 23.1187 32 20.7975 32 17.25C32 13.2718 30.4196 9.45644 27.6066 6.6434C24.7936 3.83035 20.9782 2.25 17 2.25V2.25Z" stroke="black" stroke-width="3" stroke-linecap="round" stroke-linejoin="round"/>
</svg>
