<svg width="900" height="909" viewBox="0 0 900 909" fill="none" xmlns="http://www.w3.org/2000/svg">
<path d="M0 0H150C232.843 0 300 67.1573 300 150V303H0V0Z" fill="#65C6AF"/>
<path d="M0 454.5C0 371.657 67.1573 303 150 303C232.843 303 300 371.657 300 454.5C300 537.343 232.843 606 150 606C67.1573 606 0 537.343 0 454.5Z" fill="#FFE7A9"/>
<path d="M300 303H450C532.843 303 600 371.657 600 454.5C600 537.343 532.843 606 450 606H300V303Z" fill="#C5E2DB"/>
<path d="M300 606H0V759C0 841.843 67.1573 909 150 909H300V606Z" fill="#E6E6E6"/>
<path d="M300 756C300 673.157 367.157 606 450 606H600V759C600 841.843 532.843 909 450 909H300V756Z" fill="#65C6AF"/>
<path d="M300 0H600V303H450C367.157 303 300 235.843 300 153V0Z" fill="#FFC38B"/>
<path d="M600 0H750C832.843 0 900 67.1573 900 150V303H600V0Z" fill="#FFC38B"/>
<path d="M600 453C600 370.157 667.157 303 750 303C832.843 303 900 370.157 900 453V606H600V453Z" fill="#E6E6E6"/>
<path d="M600 757.5C600 674.657 667.157 606 750 606C832.843 606 900 673.157 900 756V909H750C667.157 909 600 840.343 600 757.5Z" fill="#FFC38B"/>
</svg>
