<svg width="32" height="32" viewBox="0 0 32 32" fill="none" xmlns="http://www.w3.org/2000/svg">
<path d="M22 8H21V2H19V8H13V2H11V8H10C9.46957 8 8.96086 8.21071 8.58579 8.58579C8.21071 8.96086 8 9.46957 8 10V16C8.00326 17.9469 8.71574 19.8259 10.0041 21.2854C11.2925 22.745 13.0686 23.6852 15 23.93V30H17V23.93C18.9314 23.6852 20.7075 22.745 21.9959 21.2854C23.2843 19.8259 23.9967 17.9469 24 16V10C24 9.46957 23.7893 8.96086 23.4142 8.58579C23.0391 8.21071 22.5304 8 22 8ZM22 16C22 17.5913 21.3679 19.1174 20.2426 20.2426C19.1174 21.3679 17.5913 22 16 22C14.4087 22 12.8826 21.3679 11.7574 20.2426C10.6321 19.1174 10 17.5913 10 16V10H22V16Z" fill="black"/>
</svg>
