<svg width="47" height="31" viewBox="0 0 47 31" fill="none" xmlns="http://www.w3.org/2000/svg">
<path d="M15.5 15.5C17.0416 15.5 18.52 14.8876 19.6101 13.7976C20.7001 12.7075 21.3125 11.2291 21.3125 9.6875C21.3125 8.14593 20.7001 6.6675 19.6101 5.57744C18.52 4.48739 17.0416 3.875 15.5 3.875C13.9584 3.875 12.48 4.48739 11.3899 5.57744C10.2999 6.6675 9.6875 8.14593 9.6875 9.6875C9.6875 11.2291 10.2999 12.7075 11.3899 13.7976C12.48 14.8876 13.9584 15.5 15.5 15.5ZM19.375 9.6875C19.375 10.7152 18.9667 11.7008 18.24 12.4275C17.5133 13.1542 16.5277 13.5625 15.5 13.5625C14.4723 13.5625 13.4867 13.1542 12.76 12.4275C12.0333 11.7008 11.625 10.7152 11.625 9.6875C11.625 8.65979 12.0333 7.67416 12.76 6.94746C13.4867 6.22076 14.4723 5.8125 15.5 5.8125C16.5277 5.8125 17.5133 6.22076 18.24 6.94746C18.9667 7.67416 19.375 8.65979 19.375 9.6875ZM27.125 25.1875C27.125 27.125 25.1875 27.125 25.1875 27.125H5.8125C5.8125 27.125 3.875 27.125 3.875 25.1875C3.875 23.25 5.8125 17.4375 15.5 17.4375C25.1875 17.4375 27.125 23.25 27.125 25.1875ZM25.1875 25.1798C25.1856 24.7031 24.8891 23.2694 23.5755 21.9557C22.3123 20.6925 19.9349 19.375 15.5 19.375C11.0631 19.375 8.68775 20.6925 7.4245 21.9557C6.11088 23.2694 5.81638 24.7031 5.8125 25.1798H25.1875Z" fill="black"/>
<path d="M46 15L41 20L36 15" stroke="black" stroke-width="2" stroke-linecap="round"/>
</svg>
