<svg width="216" height="74" viewBox="0 0 216 74" fill="none" xmlns="http://www.w3.org/2000/svg">
<circle cx="41.5" cy="19.5" r="19.5" fill="#FFB470"/>
<path d="M9 25.5V21H0V25.5H9ZM0 69.5C0 71.9853 2.01472 74 4.5 74C6.98528 74 9 71.9853 9 69.5H0ZM0 25.5V69.5H9V25.5H0Z" fill="url(#paint0_linear_771_462)"/>
<path d="M0 20V16H4V20H0Z" fill="white"/>
<path fill-rule="evenodd" clip-rule="evenodd" d="M4.5 11C2.01472 11 0 13.0147 0 15.5C0 17.9853 2.01472 20 4.5 20H24.6962C30.558 20 35.1627 25.0188 34.6593 30.8589C34.2135 36.0296 29.8862 40 24.6962 40H10.5V52.626L36.2025 73.0248C38.1492 74.5698 40.9798 74.2442 42.5248 72.2975C44.0698 70.3508 43.7442 67.5202 41.7975 65.9752L20.4087 49H24.6962C34.5571 49 42.7791 41.4563 43.626 31.6319C44.5826 20.5357 35.8335 11 24.6962 11H4.5Z" fill="white"/>
<path d="M57.7812 53.4258C57.7812 54.5195 57.6328 55.4883 57.3359 56.332C57.0469 57.1758 56.6211 57.8906 56.0586 58.4766C55.5039 59.0547 54.832 59.4922 54.043 59.7891C53.2617 60.0859 52.3789 60.2344 51.3945 60.2344C50.4727 60.2344 49.625 60.0859 48.8516 59.7891C48.0859 59.4922 47.418 59.0547 46.8477 58.4766C46.2852 57.8906 45.8477 57.1758 45.5352 56.332C45.2305 55.4883 45.0781 54.5195 45.0781 53.4258C45.0781 51.9727 45.3359 50.7422 45.8516 49.7344C46.3672 48.7266 47.1016 47.9609 48.0547 47.4375C49.0078 46.9141 50.1445 46.6523 51.4648 46.6523C52.6914 46.6523 53.7773 46.9141 54.7227 47.4375C55.6758 47.9609 56.4219 48.7266 56.9609 49.7344C57.5078 50.7422 57.7812 51.9727 57.7812 53.4258ZM48.7227 53.4258C48.7227 54.2852 48.8164 55.0078 49.0039 55.5938C49.1914 56.1797 49.4844 56.6211 49.8828 56.918C50.2812 57.2148 50.8008 57.3633 51.4414 57.3633C52.0742 57.3633 52.5859 57.2148 52.9766 56.918C53.375 56.6211 53.6641 56.1797 53.8438 55.5938C54.0312 55.0078 54.125 54.2852 54.125 53.4258C54.125 52.5586 54.0312 51.8398 53.8438 51.2695C53.6641 50.6914 53.375 50.2578 52.9766 49.9688C52.5781 49.6797 52.0586 49.5352 51.418 49.5352C50.4727 49.5352 49.7852 49.8594 49.3555 50.5078C48.9336 51.1562 48.7227 52.1289 48.7227 53.4258ZM72.6406 53.4258C72.6406 54.5195 72.4922 55.4883 72.1953 56.332C71.9062 57.1758 71.4805 57.8906 70.918 58.4766C70.3633 59.0547 69.6914 59.4922 68.9023 59.7891C68.1211 60.0859 67.2383 60.2344 66.2539 60.2344C65.332 60.2344 64.4844 60.0859 63.7109 59.7891C62.9453 59.4922 62.2773 59.0547 61.707 58.4766C61.1445 57.8906 60.707 57.1758 60.3945 56.332C60.0898 55.4883 59.9375 54.5195 59.9375 53.4258C59.9375 51.9727 60.1953 50.7422 60.7109 49.7344C61.2266 48.7266 61.9609 47.9609 62.9141 47.4375C63.8672 46.9141 65.0039 46.6523 66.3242 46.6523C67.5508 46.6523 68.6367 46.9141 69.582 47.4375C70.5352 47.9609 71.2812 48.7266 71.8203 49.7344C72.3672 50.7422 72.6406 51.9727 72.6406 53.4258ZM63.582 53.4258C63.582 54.2852 63.6758 55.0078 63.8633 55.5938C64.0508 56.1797 64.3438 56.6211 64.7422 56.918C65.1406 57.2148 65.6602 57.3633 66.3008 57.3633C66.9336 57.3633 67.4453 57.2148 67.8359 56.918C68.2344 56.6211 68.5234 56.1797 68.7031 55.5938C68.8906 55.0078 68.9844 54.2852 68.9844 53.4258C68.9844 52.5586 68.8906 51.8398 68.7031 51.2695C68.5234 50.6914 68.2344 50.2578 67.8359 49.9688C67.4375 49.6797 66.918 49.5352 66.2773 49.5352C65.332 49.5352 64.6445 49.8594 64.2148 50.5078C63.793 51.1562 63.582 52.1289 63.582 53.4258ZM90.9805 46.6523C92.4648 46.6523 93.5859 47.0352 94.3438 47.8008C95.1094 48.5586 95.4922 49.7773 95.4922 51.457V60H91.9062V52.3477C91.9062 51.4102 91.7461 50.7031 91.4258 50.2266C91.1055 49.75 90.6094 49.5117 89.9375 49.5117C88.9922 49.5117 88.3203 49.8516 87.9219 50.5312C87.5234 51.2031 87.3242 52.168 87.3242 53.4258V60H83.75V52.3477C83.75 51.7227 83.6797 51.1992 83.5391 50.7773C83.3984 50.3555 83.1836 50.0391 82.8945 49.8281C82.6055 49.6172 82.2344 49.5117 81.7812 49.5117C81.1172 49.5117 80.5938 49.6797 80.2109 50.0156C79.8359 50.3438 79.5664 50.832 79.4023 51.4805C79.2461 52.1211 79.168 52.9062 79.168 53.8359V60H75.5938V46.8984H78.3242L78.8047 48.5742H79.0039C79.2695 48.1211 79.6016 47.7539 80 47.4727C80.4062 47.1914 80.8516 46.9844 81.3359 46.8516C81.8203 46.7188 82.3125 46.6523 82.8125 46.6523C83.7734 46.6523 84.5859 46.8086 85.25 47.1211C85.9219 47.4336 86.4375 47.918 86.7969 48.5742H87.1133C87.5039 47.9023 88.0547 47.4141 88.7656 47.1094C89.4844 46.8047 90.2227 46.6523 90.9805 46.6523ZM108.312 56.1094C108.312 57 108.102 57.7539 107.68 58.3711C107.266 58.9805 106.645 59.4453 105.816 59.7656C104.988 60.0781 103.957 60.2344 102.723 60.2344C101.809 60.2344 101.023 60.1758 100.367 60.0586C99.7188 59.9414 99.0625 59.7461 98.3984 59.4727V56.5195C99.1094 56.8398 99.8711 57.1055 100.684 57.3164C101.504 57.5195 102.223 57.6211 102.84 57.6211C103.535 57.6211 104.031 57.5195 104.328 57.3164C104.633 57.1055 104.785 56.832 104.785 56.4961C104.785 56.2773 104.723 56.082 104.598 55.9102C104.48 55.7305 104.223 55.5312 103.824 55.3125C103.426 55.0859 102.801 54.793 101.949 54.4336C101.129 54.0898 100.453 53.7422 99.9219 53.3906C99.3984 53.0391 99.0078 52.625 98.75 52.1484C98.5 51.6641 98.375 51.0508 98.375 50.3086C98.375 49.0977 98.8438 48.1875 99.7812 47.5781C100.727 46.9609 101.988 46.6523 103.566 46.6523C104.379 46.6523 105.152 46.7344 105.887 46.8984C106.629 47.0625 107.391 47.3242 108.172 47.6836L107.094 50.2617C106.445 49.9805 105.832 49.75 105.254 49.5703C104.684 49.3906 104.102 49.3008 103.508 49.3008C102.984 49.3008 102.59 49.3711 102.324 49.5117C102.059 49.6523 101.926 49.8672 101.926 50.1562C101.926 50.3672 101.992 50.5547 102.125 50.7188C102.266 50.8828 102.531 51.0664 102.922 51.2695C103.32 51.4648 103.902 51.7188 104.668 52.0312C105.41 52.3359 106.055 52.6562 106.602 52.9922C107.148 53.3203 107.57 53.7305 107.867 54.2227C108.164 54.707 108.312 55.3359 108.312 56.1094ZM116.504 46.6523C117.715 46.6523 118.758 46.8867 119.633 47.3555C120.508 47.8164 121.184 48.4883 121.66 49.3711C122.137 50.2539 122.375 51.332 122.375 52.6055V54.3398H113.926C113.965 55.3477 114.266 56.1406 114.828 56.7188C115.398 57.2891 116.188 57.5742 117.195 57.5742C118.031 57.5742 118.797 57.4883 119.492 57.3164C120.188 57.1445 120.902 56.8867 121.637 56.543V59.3086C120.988 59.6289 120.309 59.8633 119.598 60.0117C118.895 60.1602 118.039 60.2344 117.031 60.2344C115.719 60.2344 114.555 59.9922 113.539 59.5078C112.531 59.0234 111.738 58.2852 111.16 57.293C110.59 56.3008 110.305 55.0508 110.305 53.543C110.305 52.0117 110.562 50.7383 111.078 49.7227C111.602 48.6992 112.328 47.9336 113.258 47.4258C114.188 46.9102 115.27 46.6523 116.504 46.6523ZM116.527 49.1953C115.832 49.1953 115.254 49.418 114.793 49.8633C114.34 50.3086 114.078 51.0078 114.008 51.9609H119.023C119.016 51.4297 118.918 50.957 118.73 50.543C118.551 50.1289 118.277 49.8008 117.91 49.5586C117.551 49.3164 117.09 49.1953 116.527 49.1953ZM132.594 46.6523C132.773 46.6523 132.98 46.6641 133.215 46.6875C133.457 46.7031 133.652 46.7266 133.801 46.7578L133.531 50.1094C133.414 50.0703 133.246 50.043 133.027 50.0273C132.816 50.0039 132.633 49.9922 132.477 49.9922C132.016 49.9922 131.566 50.0508 131.129 50.168C130.699 50.2852 130.312 50.4766 129.969 50.7422C129.625 51 129.352 51.3438 129.148 51.7734C128.953 52.1953 128.855 52.7148 128.855 53.332V60H125.281V46.8984H127.988L128.516 49.1016H128.691C128.949 48.6562 129.27 48.25 129.652 47.8828C130.043 47.5078 130.484 47.2109 130.977 46.9922C131.477 46.7656 132.016 46.6523 132.594 46.6523ZM139.297 60L134.305 46.8984H138.043L140.574 54.3633C140.715 54.8008 140.824 55.2617 140.902 55.7461C140.988 56.2305 141.047 56.6641 141.078 57.0469H141.172C141.195 56.6328 141.25 56.1914 141.336 55.7227C141.43 55.2539 141.551 54.8008 141.699 54.3633L144.219 46.8984H147.957L142.965 60H139.297ZM155.211 46.6289C156.969 46.6289 158.316 47.0117 159.254 47.7773C160.191 48.543 160.66 49.707 160.66 51.2695V60H158.164L157.473 58.2188H157.379C157.004 58.6875 156.621 59.0703 156.23 59.3672C155.84 59.6641 155.391 59.8828 154.883 60.0234C154.375 60.1641 153.758 60.2344 153.031 60.2344C152.258 60.2344 151.562 60.0859 150.945 59.7891C150.336 59.4922 149.855 59.0391 149.504 58.4297C149.152 57.8125 148.977 57.0312 148.977 56.0859C148.977 54.6953 149.465 53.6719 150.441 53.0156C151.418 52.3516 152.883 51.9844 154.836 51.9141L157.109 51.8438V51.2695C157.109 50.582 156.93 50.0781 156.57 49.7578C156.211 49.4375 155.711 49.2773 155.07 49.2773C154.438 49.2773 153.816 49.3672 153.207 49.5469C152.598 49.7266 151.988 49.9531 151.379 50.2266L150.195 47.8125C150.891 47.4453 151.668 47.1562 152.527 46.9453C153.395 46.7344 154.289 46.6289 155.211 46.6289ZM157.109 53.9297L155.727 53.9766C154.57 54.0078 153.766 54.2148 153.312 54.5977C152.867 54.9805 152.645 55.4844 152.645 56.1094C152.645 56.6562 152.805 57.0469 153.125 57.2812C153.445 57.5078 153.863 57.6211 154.379 57.6211C155.145 57.6211 155.789 57.3945 156.312 56.9414C156.844 56.4883 157.109 55.8438 157.109 55.0078V53.9297ZM169.871 57.3867C170.262 57.3867 170.641 57.3477 171.008 57.2695C171.383 57.1914 171.754 57.0938 172.121 56.9766V59.6367C171.738 59.8086 171.262 59.9492 170.691 60.0586C170.129 60.1758 169.512 60.2344 168.84 60.2344C168.059 60.2344 167.355 60.1094 166.73 59.8594C166.113 59.6016 165.625 59.1602 165.266 58.5352C164.914 57.9023 164.738 57.0234 164.738 55.8984V49.582H163.027V48.0703L164.996 46.875L166.027 44.1094H168.312V46.8984H171.98V49.582H168.312V55.8984C168.312 56.3984 168.453 56.7734 168.734 57.0234C169.023 57.2656 169.402 57.3867 169.871 57.3867ZM178.355 46.8984V60H174.781V46.8984H178.355ZM176.574 41.7656C177.105 41.7656 177.562 41.8906 177.945 42.1406C178.328 42.3828 178.52 42.8398 178.52 43.5117C178.52 44.1758 178.328 44.6367 177.945 44.8945C177.562 45.1445 177.105 45.2695 176.574 45.2695C176.035 45.2695 175.574 45.1445 175.191 44.8945C174.816 44.6367 174.629 44.1758 174.629 43.5117C174.629 42.8398 174.816 42.3828 175.191 42.1406C175.574 41.8906 176.035 41.7656 176.574 41.7656ZM194.023 53.4258C194.023 54.5195 193.875 55.4883 193.578 56.332C193.289 57.1758 192.863 57.8906 192.301 58.4766C191.746 59.0547 191.074 59.4922 190.285 59.7891C189.504 60.0859 188.621 60.2344 187.637 60.2344C186.715 60.2344 185.867 60.0859 185.094 59.7891C184.328 59.4922 183.66 59.0547 183.09 58.4766C182.527 57.8906 182.09 57.1758 181.777 56.332C181.473 55.4883 181.32 54.5195 181.32 53.4258C181.32 51.9727 181.578 50.7422 182.094 49.7344C182.609 48.7266 183.344 47.9609 184.297 47.4375C185.25 46.9141 186.387 46.6523 187.707 46.6523C188.934 46.6523 190.02 46.9141 190.965 47.4375C191.918 47.9609 192.664 48.7266 193.203 49.7344C193.75 50.7422 194.023 51.9727 194.023 53.4258ZM184.965 53.4258C184.965 54.2852 185.059 55.0078 185.246 55.5938C185.434 56.1797 185.727 56.6211 186.125 56.918C186.523 57.2148 187.043 57.3633 187.684 57.3633C188.316 57.3633 188.828 57.2148 189.219 56.918C189.617 56.6211 189.906 56.1797 190.086 55.5938C190.273 55.0078 190.367 54.2852 190.367 53.4258C190.367 52.5586 190.273 51.8398 190.086 51.2695C189.906 50.6914 189.617 50.2578 189.219 49.9688C188.82 49.6797 188.301 49.5352 187.66 49.5352C186.715 49.5352 186.027 49.8594 185.598 50.5078C185.176 51.1562 184.965 52.1289 184.965 53.4258ZM204.418 46.6523C205.816 46.6523 206.941 47.0352 207.793 47.8008C208.645 48.5586 209.07 49.7773 209.07 51.457V60H205.496V52.3477C205.496 51.4102 205.324 50.7031 204.98 50.2266C204.645 49.75 204.113 49.5117 203.387 49.5117C202.293 49.5117 201.547 49.8828 201.148 50.625C200.75 51.3672 200.551 52.4375 200.551 53.8359V60H196.977V46.8984H199.707L200.188 48.5742H200.387C200.668 48.1211 201.016 47.7539 201.43 47.4727C201.852 47.1914 202.316 46.9844 202.824 46.8516C203.34 46.7188 203.871 46.6523 204.418 46.6523Z" fill="white"/>
<defs>
<linearGradient id="paint0_linear_771_462" x1="5" y1="25.5" x2="5" y2="69.5" gradientUnits="userSpaceOnUse">
<stop stop-color="#65C6AF"/>
<stop offset="1" stop-color="#65C6AF"/>
</linearGradient>
</defs>
</svg>
