<svg width="19" height="24" viewBox="0 0 19 24" fill="none" xmlns="http://www.w3.org/2000/svg">
<path fill-rule="evenodd" clip-rule="evenodd" d="M10.3788 17.1849C9.52621 18.1566 8.38435 18.8221 7.125 19.0815V22.8004C7.125 23.1185 6.99989 23.4237 6.77719 23.6486C6.55449 23.8736 6.25245 24 5.9375 24C5.62256 24 5.32051 23.8736 5.09781 23.6486C4.87511 23.4237 4.75 23.1185 4.75 22.8004V19.0815C3.40909 18.8046 2.20399 18.0683 1.33849 16.9972C0.472983 15.9262 0.000172201 14.586 4.686e-06 13.2034V6.00565C-0.00191556 4.46064 0.586395 2.97446 1.64235 1.85681C2.6983 0.739156 4.14044 0.0762323 5.66827 0.00617503C7.19609 -0.0638822 8.69176 0.464331 9.8436 1.48075C10.9954 2.49717 11.7146 3.92339 11.8513 5.46222C12.573 5.03564 13.3934 4.80908 14.2296 4.80545C15.0657 4.80181 15.888 5.02122 16.6134 5.44151C17.3387 5.8618 17.9414 6.46807 18.3604 7.19905C18.7795 7.93003 19.0001 8.7598 19 9.60452V14.403C18.9999 15.4669 18.6499 16.5006 18.0051 17.3418C17.3603 18.183 16.4571 18.784 15.4375 19.0504V22.8004C15.4375 23.1185 15.3124 23.4237 15.0897 23.6486C14.867 23.8736 14.5649 24 14.25 24C13.9351 24 13.633 23.8736 13.4103 23.6486C13.1876 23.4237 13.0625 23.1185 13.0625 22.8004V19.0504C11.9784 18.7671 11.0281 18.1065 10.3788 17.1849ZM9.5 6.00565V13.2034C9.50022 13.9479 9.27193 14.6742 8.84659 15.2822C8.42125 15.8902 7.81978 16.35 7.125 16.5983V13.2034C7.125 12.8852 6.99989 12.5801 6.77719 12.3551C6.55449 12.1302 6.25245 12.0038 5.9375 12.0038C5.62256 12.0038 5.32051 12.1302 5.09781 12.3551C4.87511 12.5801 4.75 12.8852 4.75 13.2034V16.5983C4.05523 16.35 3.45375 15.8902 3.02841 15.2822C2.60307 14.6742 2.37479 13.9479 2.375 13.2034V6.00565C2.375 5.05117 2.75034 4.13579 3.41844 3.46087C4.08653 2.78595 4.99267 2.40678 5.9375 2.40678C6.88234 2.40678 7.78847 2.78595 8.45657 3.46087C9.12467 4.13579 9.5 5.05117 9.5 6.00565ZM15.4375 16.4808V13.2034C15.4375 12.8852 15.3124 12.5801 15.0897 12.3551C14.867 12.1302 14.5649 12.0038 14.25 12.0038C13.9351 12.0038 13.633 12.1302 13.4103 12.3551C13.1876 12.5801 13.0625 12.8852 13.0625 13.2034V16.4808C12.7015 16.2702 12.4017 15.9673 12.1932 15.6026C11.9848 15.2379 11.875 14.8242 11.875 14.403V9.60452C11.875 8.9682 12.1252 8.35794 12.5706 7.908C13.016 7.45805 13.6201 7.20528 14.25 7.20528C14.8799 7.20528 15.484 7.45805 15.9294 7.908C16.3748 8.35794 16.625 8.9682 16.625 9.60452V14.403C16.625 14.8242 16.5152 15.2379 16.3068 15.6026C16.0983 15.9673 15.7985 16.2702 15.4375 16.4808Z" fill="black"/>
</svg>
