<svg width="61" height="64" viewBox="0 0 61 64" fill="none" xmlns="http://www.w3.org/2000/svg">
<path d="M26.0547 6C30.9766 6 35.0391 6.59896 38.2422 7.79688C41.4714 8.99479 43.8672 10.8177 45.4297 13.2656C47.0182 15.7135 47.8125 18.8255 47.8125 22.6016C47.8125 25.4141 47.2917 27.8099 46.25 29.7891C45.2083 31.7682 43.8411 33.4089 42.1484 34.7109C40.4557 36.013 38.6458 37.0547 36.7188 37.8359L52.9297 63.1094H42.3438L28.5547 40.2188H19.375V63.1094H10V6H26.0547ZM25.4297 13.8125H19.375V32.4844H25.8594C30.2083 32.4844 33.3594 31.6771 35.3125 30.0625C37.2917 28.4479 38.2812 26.0651 38.2812 22.9141C38.2812 19.6068 37.2266 17.263 35.1172 15.8828C33.0339 14.5026 29.8047 13.8125 25.4297 13.8125Z" fill="#FFC38B"/>
<path d="M16.0547 0C20.9766 0 25.0391 0.598958 28.2422 1.79688C31.4714 2.99479 33.8672 4.81771 35.4297 7.26562C37.0182 9.71354 37.8125 12.8255 37.8125 16.6016C37.8125 19.4141 37.2917 21.8099 36.25 23.7891C35.2083 25.7682 33.8411 27.4089 32.1484 28.7109C30.4557 30.013 28.6458 31.0547 26.7188 31.8359L42.9297 57.1094H32.3438L18.5547 34.2188H9.375V57.1094H0V0H16.0547ZM15.4297 7.8125H9.375V26.4844H15.8594C20.2083 26.4844 23.3594 25.6771 25.3125 24.0625C27.2917 22.4479 28.2812 20.0651 28.2812 16.9141C28.2812 13.6068 27.2266 11.263 25.1172 9.88281C23.0339 8.5026 19.8047 7.8125 15.4297 7.8125Z" fill="#65C6AF"/>
<path d="M21.5547 2.89062C26.4766 2.89062 30.5391 3.48958 33.7422 4.6875C36.9714 5.88542 39.3672 7.70833 40.9297 10.1562C42.5182 12.6042 43.3125 15.7161 43.3125 19.4922C43.3125 22.3047 42.7917 24.7005 41.75 26.6797C40.7083 28.6589 39.3411 30.2995 37.6484 31.6016C35.9557 32.9036 34.1458 33.9453 32.2188 34.7266L48.4297 60H37.8438L24.0547 37.1094H14.875V60H5.5V2.89062H21.5547ZM20.9297 10.7031H14.875V29.375H21.3594C25.7083 29.375 28.8594 28.5677 30.8125 26.9531C32.7917 25.3385 33.7812 22.9557 33.7812 19.8047C33.7812 16.4974 32.7266 14.1536 30.6172 12.7734C28.5339 11.3932 25.3047 10.7031 20.9297 10.7031Z" fill="white"/>
<circle cx="57" cy="39" r="4" fill="white"/>
</svg>
