<svg width="25" height="27" viewBox="0 0 25 27" fill="none" xmlns="http://www.w3.org/2000/svg">
<path d="M15.671 17.7188L17.2335 20.8483C16.6411 22.679 15.5688 24.1619 14.0165 25.2972C12.4643 26.4324 10.7333 27 8.82353 27C7.23039 27 5.75725 26.6037 4.40411 25.8111C3.05096 25.0185 1.97866 23.9446 1.18719 22.5895C0.395731 21.2344 0 19.7591 0 18.1636C0 16.3125 0.533599 14.625 1.6008 13.1011C2.66799 11.5773 4.06965 10.4983 5.80576 9.8642L6.06618 11.8739C4.82026 12.4261 3.82455 13.2724 3.07904 14.4128C2.33354 15.5531 1.96078 16.8034 1.96078 18.1636C1.96078 20.0557 2.63225 21.6741 3.97518 23.019C5.31812 24.3639 6.93423 25.0364 8.82353 25.0364C10.1103 25.0364 11.2975 24.704 12.3851 24.0392C13.4727 23.3744 14.3153 22.477 14.9127 21.3469C15.5101 20.2168 15.7629 19.0074 15.671 17.7188ZM24.0656 19.2528L24.954 21.0017L21.0325 22.9653C20.8997 23.0369 20.7516 23.0727 20.5882 23.0727C20.1797 23.0727 19.8887 22.8938 19.7151 22.5358L16.0539 15.2182H8.82353C8.57843 15.2182 8.36142 15.1338 8.17249 14.9651C7.98356 14.7963 7.87377 14.5892 7.84314 14.3438L6.37255 2.39318C6.35212 2.21932 6.38276 2.00455 6.46446 1.74886C6.60743 1.22727 6.89849 0.805398 7.33762 0.483239C7.77676 0.16108 8.27206 0 8.82353 0C9.49755 0 10.0746 0.240341 10.5545 0.721023C11.0345 1.2017 11.2745 1.77955 11.2745 2.45455C11.2745 3.16023 11.009 3.76108 10.4779 4.2571C9.9469 4.75313 9.33415 4.96534 8.63971 4.89375L9.2065 9.32727H15.6863V11.2909H9.45159L9.69669 13.2545H16.6667C17.0752 13.2545 17.3662 13.4335 17.5398 13.7915L21.0325 20.7716L24.0656 19.2528Z" fill="black"/>
</svg>
