<svg width="33" height="33" viewBox="0 0 33 33" fill="none" xmlns="http://www.w3.org/2000/svg">
<path d="M28.596 5.71065L28.7775 5.87895L28.9458 6.06045C29.4611 6.66822 29.7296 7.44726 29.6981 8.2435C29.6667 9.03973 29.3375 9.79515 28.7758 10.3603L22.8309 16.3284C22.4661 16.6952 22.0159 16.9657 21.5208 17.1154L18.2868 18.0906C18.1119 18.1428 17.9285 18.16 17.7469 18.1412C17.5654 18.1225 17.3894 18.0681 17.2289 17.9812C17.0684 17.8943 16.9267 17.7766 16.8118 17.6348C16.6969 17.4931 16.611 17.33 16.5592 17.1551C16.4783 16.8839 16.4811 16.5946 16.5675 16.3251L17.5921 13.1208C17.7456 12.6439 18.0079 12.2133 18.3594 11.8585L24.3192 5.8773C24.8792 5.3144 25.6316 4.98446 26.4251 4.95385C27.2186 4.92323 27.9942 5.19422 28.596 5.7123V5.71065ZM25.4874 7.04055L19.5292 13.0234C19.3619 13.1914 19.2369 13.3967 19.1646 13.6224L18.2851 16.368L21.0439 15.5347C21.2749 15.4655 21.4894 15.3368 21.661 15.1651L27.606 9.1971C27.8719 8.92832 28.0291 8.57073 28.0474 8.19306C28.0657 7.8154 27.9437 7.4443 27.705 7.1511L27.606 7.04385L27.5004 6.94485C27.2136 6.70618 26.8479 6.58362 26.4752 6.60133C26.1026 6.61905 25.7501 6.77576 25.4874 7.04055ZM21.27 6.6H8.2498C6.93698 6.6 5.67793 7.12152 4.74963 8.04982C3.82132 8.97813 3.2998 10.2372 3.2998 11.55V21.45C3.2998 22.7628 3.82132 24.0219 4.74963 24.9502C5.67793 25.8785 6.93698 26.4 8.2498 26.4H24.7498C26.0626 26.4 27.3217 25.8785 28.25 24.9502C29.1783 24.0219 29.6998 22.7628 29.6998 21.45V11.7711L28.0498 13.4277V21.45C28.0498 22.3252 27.7021 23.1646 27.0833 23.7835C26.4644 24.4023 25.625 24.75 24.7498 24.75H8.2498C7.37459 24.75 6.53522 24.4023 5.91635 23.7835C5.29748 23.1646 4.9498 22.3252 4.9498 21.45V15.2295C5.89525 14.4276 7.1608 13.398 8.3719 12.6968C9.0484 12.3057 9.6457 12.0532 10.1242 11.9724C10.5879 11.8932 10.8222 11.9889 10.9657 12.1341C11.0565 12.2135 11.118 12.3209 11.1406 12.4394C11.1553 12.5942 11.1327 12.7504 11.0746 12.8948C10.9212 13.3502 10.5631 13.8881 10.0813 14.5612L9.9262 14.779C9.5104 15.3565 9.03851 16.0116 8.7118 16.6666C8.34056 17.4042 8.065 18.3084 8.37521 19.2357C8.6557 20.0739 9.1969 20.6299 9.9031 20.9038C10.5664 21.1612 11.2957 21.1414 11.9425 21.0243C13.2378 20.7933 14.5561 20.1135 15.2755 19.6828C15.4632 19.5702 15.5985 19.3875 15.6516 19.1751C15.7047 18.9627 15.6712 18.7379 15.5585 18.5501C15.4458 18.3624 15.2632 18.2271 15.0507 18.174C14.8383 18.121 14.6135 18.1545 14.4258 18.2671C13.7674 18.6631 12.652 19.2209 11.6521 19.4007C11.1522 19.4898 10.7661 19.47 10.5004 19.3661C10.276 19.2786 10.0714 19.1136 9.9394 18.7143C9.8371 18.4041 9.8899 17.9965 10.1869 17.4058C10.4509 16.8778 10.8403 16.335 11.2693 15.7393L11.4228 15.5232C11.8782 14.8863 12.3913 14.1504 12.6388 13.4228C12.7659 13.0449 12.8401 12.6209 12.7708 12.1803C12.6945 11.7176 12.4711 11.2918 12.1339 10.9659C11.4789 10.3125 10.6258 10.2135 9.847 10.3455C9.0847 10.4759 8.28775 10.8405 7.5469 11.2678C6.646 11.7876 5.7385 12.4592 4.9498 13.0894V11.55C4.9498 10.6748 5.29748 9.83542 5.91635 9.21655C6.53522 8.59768 7.37459 8.25 8.2498 8.25H19.6266L21.27 6.6Z" fill="black"/>
</svg>
